<?xml version="1.0" encoding="UTF-8"?>
<svg width="800px" height="800px" viewBox="0 0 800 800" version="1.1" xmlns="http://www.w3.org/2000/svg">
    <g stroke="none" stroke-width="1" fill="none" fill-rule="evenodd">
        <g fill="#FFFFFF" fill-opacity="0.15">
            <circle cx="400" cy="400" r="80"></circle>
            <circle cx="400" cy="400" r="160"></circle>
            <circle cx="400" cy="400" r="240"></circle>
            <circle cx="400" cy="400" r="320"></circle>
            <circle cx="400" cy="400" r="400"></circle>
            <path d="M50,50 L150,50 L150,150 L50,150 Z"></path>
            <path d="M650,50 L750,50 L750,150 L650,150 Z"></path>
            <path d="M50,650 L150,650 L150,750 L50,750 Z"></path>
            <path d="M650,650 L750,650 L750,750 L650,750 Z"></path>
            <path d="M200,200 L250,200 L250,250 L200,250 Z"></path>
            <path d="M550,200 L600,200 L600,250 L550,250 Z"></path>
            <path d="M200,550 L250,550 L250,600 L200,600 Z"></path>
            <path d="M550,550 L600,550 L600,600 L550,600 Z"></path>
        </g>
    </g>
</svg>
